<svg width="192" height="48" viewBox="0 0 192 48" fill="none" xmlns="http://www.w3.org/2000/svg">
  <defs>
    <linearGradient id="gradient" x1="0" y1="0" x2="1" y2="1">
      <stop offset="0" stop-color="#6366F1" />
      <stop offset="0.5" stop-color="#EC4899" />
      <stop offset="1" stop-color="#22D3EE" />
    </linearGradient>
  </defs>
  <rect x="4" y="4" width="40" height="40" rx="12" fill="url(#gradient)" />
  <path
    d="M20.6 32.4c-2.9 0-5.3-2.3-5.3-5.2 0-2.9 2.4-5.2 5.3-5.2 1.6 0 3 0.7 4 1.8l2.8-2.5c-1.6-1.9-4-3.2-6.8-3.2-4.9 0-8.8 3.8-8.8 8.6 0 4.8 3.9 8.6 8.8 8.6 2.8 0 5.2-1.2 6.8-3.2l-2.8-2.5c-1 1.1-2.4 1.8-4 1.8Z"
    fill="white"
  />
  <path
    d="M52.7 33.5c-4.9 0-8.7-3.8-8.7-8.6 0-4.8 3.8-8.6 8.7-8.6 3.3 0 6 1.6 7.5 3.9l-3.6 2.1c-0.8-1.3-2.3-2.1-3.8-2.1-2.7 0-4.8 2.1-4.8 4.7s2.1 4.7 4.8 4.7c1.6 0 3-0.8 3.8-2.1l3.6 2.1c-1.5 2.4-4.3 3.9-7.5 3.9Zm22.2-16.4v15.8h-4.1v-1.8c-1 1.4-2.7 2.2-4.7 2.2-3.9 0-6.8-2.8-6.8-7.1 0-4.3 2.9-7.1 6.8-7.1 2 0 3.6 0.7 4.7 2.1v-4.1h4.1Zm-4.5 9.1c0-2-1.4-3.4-3.3-3.4-1.9 0-3.3 1.4-3.3 3.4s1.4 3.4 3.3 3.4c1.9 0 3.3-1.4 3.3-3.4Zm16.7-2.6v7.2h-4.1V17.1h4.1v7.2l5.9-7.2h4.7l-7 8.2 7 8.2h-4.7l-5.9-7.2Zm23.5 9.7c-4.2 0-7.1-2.8-7.1-7.1 0-4.3 3-7.1 7.4-7.1 2.9 0 5.3 1.4 6.5 3.6l-3.5 2c-0.6-1.2-1.7-1.9-3-1.9-1.9 0-3.2 1.4-3.2 3.4s1.3 3.4 3.2 3.4c1.3 0 2.3-0.7 2.9-1.8l3.5 2c-1.2 2.2-3.6 3.5-6.7 3.5Zm16.4-0.2c-4 0-7-2.8-7-7.1 0-4.3 3-7.1 7.3-7.1 4 0 7 2.8 7 7.1 0 4.3-3 7.1-7.3 7.1Zm0-3.7c1.8 0 3-1.4 3-3.4s-1.2-3.4-3-3.4c-1.8 0-3 1.4-3 3.4s1.2 3.4 3 3.4Zm21.6-3.9v7.4h-4.1v-6.3c0-1.7-0.9-2.7-2.4-2.7-1.6 0-2.7 1.1-2.7 3v6h-4.1V20.2h4.1v1.7c1-1.3 2.5-2 4.3-2 3.3 0 5 2.2 5 5.5ZM171 33.5c-4.2 0-7.1-2.8-7.1-7.1 0-4.3 3-7.1 7.4-7.1 2.9 0 5.3 1.4 6.5 3.6l-3.5 2c-0.6-1.2-1.7-1.9-3-1.9-1.9 0-3.2 1.4-3.2 3.4s1.3 3.4 3.2 3.4c1.3 0 2.3-0.7 2.9-1.8l3.5 2c-1.2 2.2-3.6 3.5-6.7 3.5Zm16.4-0.2c-4 0-7-2.8-7-7.1 0-4.3 3-7.1 7.3-7.1 4 0 7 2.8 7 7.1 0 4.3-3 7.1-7.3 7.1Zm0-3.7c1.8 0 3-1.4 3-3.4s-1.2-3.4-3-3.4c-1.8 0-3 1.4-3 3.4s1.2 3.4 3 3.4Z"
    fill="white"
  />
</svg>
